<svg width="48" height="48" viewBox="0 0 48 48" fill="none" xmlns="http://www.w3.org/2000/svg">
<path d="M42 22V18H38V14C37.9968 12.9401 37.5744 11.9245 36.8249 11.1751C36.0755 10.4256 35.0599 10.0032 34 10H30V6H26V10H22V6H18V10H14C12.9401 10.0032 11.9245 10.4256 11.1751 11.1751C10.4256 11.9245 10.0032 12.9401 10 14V18H6V22H10V26H6V30H10V34C10.0032 35.0599 10.4256 36.0755 11.1751 36.8249C11.9245 37.5744 12.9401 37.9968 14 38H18V42H22V38H26V42H30V38H34C35.0599 37.9968 36.0755 37.5744 36.8249 36.8249C37.5744 36.0755 37.9968 35.0599 38 34V30H42V26H38V22H42ZM34 34H14V14H34V34Z" fill="black"/>
<path d="M22.7217 16H20.0317L16.0117 32H18.0657L18.9937 28.25H23.6257L24.5297 32H26.6537L22.7217 16ZM19.2637 26.648L21.2997 17.9H21.3917L23.3577 26.648H19.2637ZM28.4877 16H30.4877V32H28.4877V16Z" fill="black"/>
</svg>
