<svg width="99" height="99" viewBox="0 0 99 99" fill="none" xmlns="http://www.w3.org/2000/svg">
<g clip-path="url(#clip0_11_2)">
<path d="M49.5 8.25C72.2824 8.25 90.75 26.7176 90.75 49.5C90.75 72.2824 72.2824 90.75 49.5 90.75C26.7176 90.75 8.25 72.2824 8.25 49.5C8.25 26.7176 26.7176 8.25 49.5 8.25ZM49.5 16.5C40.7479 16.5 32.3542 19.9768 26.1655 26.1655C19.9768 32.3542 16.5 40.7479 16.5 49.5C16.5 58.2522 19.9768 66.6458 26.1655 72.8345C32.3542 79.0232 40.7479 82.5 49.5 82.5C58.2522 82.5 66.6458 79.0232 72.8345 72.8345C79.0232 66.6458 82.5 58.2522 82.5 49.5C82.5 40.7479 79.0232 32.3542 72.8345 26.1655C66.6458 19.9768 58.2522 16.5 49.5 16.5ZM49.5 24.75C50.5104 24.7501 51.4855 25.1211 52.2405 25.7925C52.9956 26.4638 53.4779 27.389 53.5961 28.3924L53.625 28.875V47.7923L64.7914 58.9586C65.5312 59.701 65.9607 60.6971 65.9927 61.7446C66.0247 62.7921 65.6568 63.8126 64.9636 64.5987C64.2705 65.3847 63.3041 65.8775 62.2608 65.9769C61.2175 66.0763 60.1755 65.7748 59.3464 65.1338L58.9586 64.7914L46.5836 52.4164C45.9425 51.7747 45.5308 50.9396 45.4121 50.0404L45.375 49.5V28.875C45.375 27.781 45.8096 26.7318 46.5832 25.9582C47.3568 25.1846 48.406 24.75 49.5 24.75Z" fill="#F1511B"/>
</g>
<defs>
<clipPath id="clip0_11_2">
<rect width="99" height="99" fill="white"/>
</clipPath>
</defs>
</svg>
