<svg width="59" height="59" viewBox="0 0 59 59" fill="none" xmlns="http://www.w3.org/2000/svg">
<g clip-path="url(#clip0_327_110)">
<path d="M29.5 6.91669C43.0774 6.91669 54.0834 17.9226 54.0834 31.5C54.0834 45.0774 43.0774 56.0834 29.5 56.0834C15.9226 56.0834 4.91669 45.0774 4.91669 31.5C4.91669 17.9226 15.9226 6.91669 29.5 6.91669ZM29.5 11.8334C24.2841 11.8334 19.2818 13.9054 15.5936 17.5936C11.9054 21.2818 9.83336 26.2841 9.83336 31.5C9.83336 36.716 11.9054 41.7183 15.5936 45.4065C19.2818 49.0947 24.2841 51.1667 29.5 51.1667C34.716 51.1667 39.7183 49.0947 43.4065 45.4065C47.0947 41.7183 49.1667 36.716 49.1667 31.5C49.1667 26.2841 47.0947 21.2818 43.4065 17.5936C39.7183 13.9054 34.716 11.8334 29.5 11.8334ZM29.5 16.75C30.1022 16.7501 30.6833 16.9712 31.1333 17.3713C31.5832 17.7714 31.8707 18.3227 31.9412 18.9207L31.9584 19.2084V30.4823L38.6131 37.137C39.054 37.5794 39.3099 38.173 39.329 38.7973C39.3481 39.4216 39.1288 40.0297 38.7157 40.4982C38.3026 40.9667 37.7267 41.2604 37.1049 41.3196C36.4832 41.3788 35.8622 41.1992 35.3681 40.8171L35.137 40.6131L27.762 33.2381C27.3799 32.8557 27.1345 32.358 27.0638 31.8221L27.0417 31.5V19.2084C27.0417 18.5564 27.3007 17.9311 27.7617 17.4701C28.2228 17.009 28.848 16.75 29.5 16.75Z" fill="#0064E1"/>
</g>
<defs>
<clipPath id="clip0_327_110">
<rect width="59" height="59" fill="white"/>
</clipPath>
</defs>
</svg>
