<svg width="43" height="43" viewBox="0 0 43 43" fill="none" xmlns="http://www.w3.org/2000/svg">
<g clip-path="url(#clip0_327_101)">
<path d="M5.21102 0.130493H38.236C40.7882 0.130493 42.8595 2.20182 42.8595 4.75399V37.779C42.8595 39.0052 42.3724 40.1812 41.5053 41.0483C40.6382 41.9154 39.4622 42.4025 38.236 42.4025H5.21102C3.98479 42.4025 2.80879 41.9154 1.94172 41.0483C1.07464 40.1812 0.587524 39.0052 0.587524 37.779L0.587524 4.75399C0.587524 2.20182 2.65885 0.130493 5.21102 0.130493ZM4.55052 4.75399V37.779C4.55052 38.1436 4.84643 38.4395 5.21102 38.4395H38.236C38.4112 38.4395 38.5792 38.3699 38.703 38.246C38.8269 38.1222 38.8965 37.9542 38.8965 37.779V4.75399C38.8965 4.57882 38.8269 4.41082 38.703 4.28695C38.5792 4.16308 38.4112 4.09349 38.236 4.09349H5.21102C5.03585 4.09349 4.86785 4.16308 4.74398 4.28695C4.62011 4.41082 4.55052 4.57882 4.55052 4.75399ZM31.631 8.05649C32.1565 8.05649 32.6605 8.26525 33.0321 8.63686C33.4037 9.00846 33.6125 9.51246 33.6125 10.038V29.853C33.6125 30.3785 33.4037 30.8825 33.0321 31.2541C32.6605 31.6257 32.1565 31.8345 31.631 31.8345C31.1055 31.8345 30.6015 31.6257 30.2299 31.2541C29.8583 30.8825 29.6495 30.3785 29.6495 29.853V10.038C29.6495 9.51246 29.8583 9.00846 30.2299 8.63686C30.6015 8.26525 31.1055 8.05649 31.631 8.05649ZM9.83452 10.038C9.83452 9.51246 10.0433 9.00846 10.4149 8.63686C10.7865 8.26525 11.2905 8.05649 11.816 8.05649C12.3415 8.05649 12.8455 8.26525 13.2171 8.63686C13.5888 9.00846 13.7975 9.51246 13.7975 10.038V24.569C13.7975 25.0945 13.5888 25.5985 13.2171 25.9701C12.8455 26.3417 12.3415 26.5505 11.816 26.5505C11.2905 26.5505 10.7865 26.3417 10.4149 25.9701C10.0433 25.5985 9.83452 25.0945 9.83452 24.569V10.038ZM21.7235 8.05649C22.249 8.05649 22.753 8.26525 23.1246 8.63686C23.4962 9.00846 23.705 9.51246 23.705 10.038V19.285C23.705 19.8105 23.4962 20.3145 23.1246 20.6861C22.753 21.0577 22.249 21.2665 21.7235 21.2665C21.198 21.2665 20.694 21.0577 20.3224 20.6861C19.9508 20.3145 19.742 19.8105 19.742 19.285V10.038C19.742 9.51246 19.9508 9.00846 20.3224 8.63686C20.694 8.26525 21.198 8.05649 21.7235 8.05649Z" fill="#0081FB"/>
</g>
<defs>
<clipPath id="clip0_327_101">
<rect width="42.272" height="42.272" fill="white" transform="translate(0.587524 0.130493)"/>
</clipPath>
</defs>
</svg>
