<svg width="63" height="63" viewBox="0 0 63 63" fill="none" xmlns="http://www.w3.org/2000/svg">
<g clip-path="url(#clip0_8_134)">
<path d="M6.89062 0H56.1094C59.913 0 63 3.087 63 6.89062V56.1094C63 57.9369 62.274 59.6895 60.9818 60.9818C59.6895 62.274 57.9369 63 56.1094 63H6.89062C5.06312 63 3.31046 62.274 2.01822 60.9818C0.725974 59.6895 0 57.9369 0 56.1094L0 6.89062C0 3.087 3.087 0 6.89062 0ZM5.90625 6.89062V56.1094C5.90625 56.6527 6.34725 57.0938 6.89062 57.0938H56.1094C56.3704 57.0938 56.6208 56.99 56.8054 56.8054C56.99 56.6208 57.0938 56.3704 57.0938 56.1094V6.89062C57.0938 6.62955 56.99 6.37917 56.8054 6.19457C56.6208 6.00996 56.3704 5.90625 56.1094 5.90625H6.89062C6.62955 5.90625 6.37917 6.00996 6.19457 6.19457C6.00996 6.37917 5.90625 6.62955 5.90625 6.89062ZM46.2656 11.8125C47.0488 11.8125 47.8 12.1236 48.3538 12.6775C48.9076 13.2313 49.2188 13.9824 49.2188 14.7656V44.2969C49.2188 45.0801 48.9076 45.8312 48.3538 46.385C47.8 46.9389 47.0488 47.25 46.2656 47.25C45.4824 47.25 44.7313 46.9389 44.1775 46.385C43.6236 45.8312 43.3125 45.0801 43.3125 44.2969V14.7656C43.3125 13.9824 43.6236 13.2313 44.1775 12.6775C44.7313 12.1236 45.4824 11.8125 46.2656 11.8125ZM13.7812 14.7656C13.7812 13.9824 14.0924 13.2313 14.6462 12.6775C15.2 12.1236 15.9512 11.8125 16.7344 11.8125C17.5176 11.8125 18.2687 12.1236 18.8225 12.6775C19.3764 13.2313 19.6875 13.9824 19.6875 14.7656V36.4219C19.6875 37.2051 19.3764 37.9562 18.8225 38.51C18.2687 39.0639 17.5176 39.375 16.7344 39.375C15.9512 39.375 15.2 39.0639 14.6462 38.51C14.0924 37.9562 13.7812 37.2051 13.7812 36.4219V14.7656ZM31.5 11.8125C32.2832 11.8125 33.0344 12.1236 33.5882 12.6775C34.142 13.2313 34.4531 13.9824 34.4531 14.7656V28.5469C34.4531 29.3301 34.142 30.0812 33.5882 30.635C33.0344 31.1889 32.2832 31.5 31.5 31.5C30.7168 31.5 29.9656 31.1889 29.4118 30.635C28.858 30.0812 28.5469 29.3301 28.5469 28.5469V14.7656C28.5469 13.9824 28.858 13.2313 29.4118 12.6775C29.9656 12.1236 30.7168 11.8125 31.5 11.8125Z" fill="#F27E1E"/>
</g>
<defs>
<clipPath id="clip0_8_134">
<rect width="63" height="63" fill="white"/>
</clipPath>
</defs>
</svg>
