<svg width="56" height="56" viewBox="0 0 56 56" fill="none" xmlns="http://www.w3.org/2000/svg">
<path d="M28 3.5C14.4703 3.5 3.5 14.4703 3.5 28C3.5 41.5297 14.4703 52.5 28 52.5C41.5297 52.5 52.5 41.5297 52.5 28C52.5 14.4703 41.5297 3.5 28 3.5ZM28 48.3438C16.7672 48.3438 7.65625 39.2328 7.65625 28C7.65625 16.7672 16.7672 7.65625 28 7.65625C39.2328 7.65625 48.3438 16.7672 48.3438 28C48.3438 39.2328 39.2328 48.3438 28 48.3438Z" fill="#0064E0"/>
<path d="M23.3297 22.4383C23.3297 23.8274 24.1883 24.9047 26.0367 25.5719C26.2938 25.6758 26.5508 25.7578 26.8571 25.8453V19.0641C24.8336 19.3211 23.3297 20.4531 23.3297 22.4383ZM29.7008 29.8321C29.5422 29.7992 29.3891 29.761 29.2196 29.7117V37.0235C31.5492 36.8157 33.1571 35.5305 33.1571 33.3922C33.1571 31.7133 32.2875 30.6196 29.7008 29.8321Z" fill="black" fill-opacity="0.15"/>
<path d="M28 7.65625C16.7672 7.65625 7.65625 16.7672 7.65625 28C7.65625 39.2328 16.7672 48.3438 28 48.3438C39.2328 48.3438 48.3438 39.2328 48.3438 28C48.3438 16.7672 39.2328 7.65625 28 7.65625ZM29.225 39.8781L29.2359 41.6117C29.2359 41.8578 29.0391 42.0547 28.7984 42.0547H27.2453C27.0047 42.0547 26.8078 41.8578 26.8078 41.6172V39.9C21.9406 39.5445 19.6602 36.7773 19.4141 33.7695C19.3922 33.5125 19.5945 33.2937 19.8516 33.2937H22.3781C22.5914 33.2937 22.7773 33.4469 22.8102 33.6547C23.0891 35.3938 24.4453 36.6844 26.8625 37.007V29.2031L25.5117 28.8586C22.6516 28.175 19.9281 26.3922 19.9281 22.6953C19.9281 18.7031 22.9578 16.5648 26.8297 16.1875V14.3828C26.8297 14.1422 27.0266 13.9453 27.2672 13.9453H28.8039C29.0445 13.9453 29.2414 14.1422 29.2414 14.3828V16.1711C32.9875 16.5484 35.793 18.7359 36.1266 22.143C36.1318 22.2038 36.1245 22.2651 36.1049 22.323C36.0854 22.3808 36.0541 22.434 36.013 22.4792C35.9719 22.5244 35.9219 22.5606 35.8662 22.5856C35.8104 22.6105 35.7501 22.6237 35.6891 22.6242H33.2336C33.0148 22.6242 32.8289 22.4656 32.8016 22.2469C32.5828 20.65 31.2977 19.3484 29.2195 19.0641V26.4086L30.6086 26.7312C34.1523 27.6062 36.5641 29.3016 36.5695 33.0969C36.5695 37.2094 33.507 39.5008 29.225 39.8781Z" fill="black" fill-opacity="0.15"/>
<path d="M30.6086 26.7312L29.2195 26.4086V19.0641C31.2976 19.3484 32.5828 20.65 32.8015 22.2469C32.8289 22.4656 33.0148 22.6242 33.2336 22.6242H35.689C35.9461 22.6242 36.1484 22.4 36.1265 22.143C35.7929 18.7359 32.9875 16.5484 29.2414 16.1711V14.3828C29.2414 14.1422 29.0445 13.9453 28.8039 13.9453H27.2672C27.0265 13.9453 26.8297 14.1422 26.8297 14.3828V16.1875C22.9578 16.5648 19.9281 18.7031 19.9281 22.6953C19.9281 26.3922 22.6515 28.175 25.5117 28.8586L26.8625 29.2031V37.007C24.4453 36.6844 23.089 35.3938 22.8101 33.6547C22.7773 33.4469 22.5914 33.2937 22.3781 33.2937H19.8515C19.5945 33.2937 19.3922 33.5125 19.414 33.7695C19.6601 36.7773 21.9406 39.5445 26.8078 39.9V41.6172C26.8078 41.8578 27.0047 42.0547 27.2453 42.0547H28.7984C29.039 42.0547 29.2359 41.8578 29.2359 41.6117L29.225 39.8781C33.507 39.5008 36.5695 37.2094 36.5695 33.0969C36.564 29.3016 34.1523 27.6062 30.6086 26.7312ZM26.857 25.8453C26.5508 25.7578 26.2937 25.6758 26.0367 25.5719C24.1883 24.9047 23.3297 23.8273 23.3297 22.4383C23.3297 20.4531 24.8336 19.3211 26.857 19.0641V25.8453ZM29.2195 37.0234V29.7117C29.389 29.7609 29.5422 29.7992 29.7008 29.832C32.2875 30.6195 33.157 31.7133 33.157 33.3922C33.157 35.5305 31.5492 36.8156 29.2195 37.0234Z" fill="#0064E0"/>
</svg>
