<svg width="99" height="99" viewBox="0 0 99 99" fill="none" xmlns="http://www.w3.org/2000/svg">
<path d="M49.5 6.1875C25.5814 6.1875 6.1875 25.5814 6.1875 49.5C6.1875 73.4186 25.5814 92.8125 49.5 92.8125C73.4186 92.8125 92.8125 73.4186 92.8125 49.5C92.8125 25.5814 73.4186 6.1875 49.5 6.1875ZM49.5 85.4648C29.642 85.4648 13.5352 69.358 13.5352 49.5C13.5352 29.642 29.642 13.5352 49.5 13.5352C69.358 13.5352 85.4648 29.642 85.4648 49.5C85.4648 69.358 69.358 85.4648 49.5 85.4648Z" fill="#F1511B"/>
<path d="M41.2432 39.6677C41.2432 42.1233 42.761 44.0279 46.0288 45.2074C46.4832 45.3911 46.9376 45.5361 47.479 45.6908V33.7025C43.9019 34.1569 41.2432 36.1582 41.2432 39.6677ZM52.5063 52.7388C52.226 52.6808 51.9553 52.6131 51.6556 52.5261V65.4521C55.7741 65.0848 58.6165 62.8128 58.6165 59.0326C58.6165 56.0645 57.0793 54.131 52.5063 52.7388Z" fill="black" fill-opacity="0.15"/>
<path d="M49.5 13.5352C29.642 13.5352 13.5352 29.642 13.5352 49.5C13.5352 69.358 29.642 85.4648 49.5 85.4648C69.358 85.4648 85.4648 69.358 85.4648 49.5C85.4648 29.642 69.358 13.5352 49.5 13.5352ZM51.6656 70.4988L51.685 73.5636C51.685 73.9986 51.3369 74.3467 50.9115 74.3467H48.1658C47.7404 74.3467 47.3924 73.9986 47.3924 73.5732V70.5375C38.7879 69.9091 34.7563 65.0171 34.3213 59.6997C34.2826 59.2453 34.6403 58.8586 35.0947 58.8586H39.5613C39.9384 58.8586 40.2671 59.1293 40.3251 59.4967C40.8182 62.5711 43.2158 64.8527 47.4891 65.4231V51.627L45.1011 51.0179C40.0447 49.8094 35.2301 46.6576 35.2301 40.1221C35.2301 33.0645 40.5861 29.2843 47.4311 28.6172V25.4268C47.4311 25.0014 47.7791 24.6533 48.2045 24.6533H50.9212C51.3466 24.6533 51.6946 25.0014 51.6946 25.4268V28.5882C58.3172 29.2553 63.2769 33.1225 63.8666 39.1456C63.8759 39.2532 63.8629 39.3615 63.8284 39.4638C63.7938 39.5661 63.7385 39.6602 63.6659 39.7401C63.5932 39.82 63.5049 39.884 63.4063 39.9281C63.3078 39.9722 63.2011 39.9955 63.0932 39.9964H58.7522C58.3655 39.9964 58.0368 39.716 57.9885 39.3293C57.6018 36.5062 55.3298 34.2053 51.656 33.7025V46.6866L54.1116 47.257C60.3765 48.8039 64.64 51.801 64.6497 58.5105C64.6497 65.7809 59.2356 69.8317 51.6656 70.4988Z" fill="black" fill-opacity="0.15"/>
<path d="M54.1116 47.257L51.6559 46.6866V33.7025C55.3297 34.2053 57.6017 36.5062 57.9884 39.3293C58.0368 39.716 58.3655 39.9964 58.7522 39.9964H63.0931C63.5475 39.9964 63.9052 39.6 63.8665 39.1456C63.2768 33.1225 58.3171 29.2553 51.6946 28.5882V25.4268C51.6946 25.0014 51.3465 24.6533 50.9211 24.6533H48.2044C47.779 24.6533 47.431 25.0014 47.431 25.4268V28.6172C40.5861 29.2843 35.23 33.0645 35.23 40.1221C35.23 46.6576 40.0447 49.8094 45.101 51.0179L47.489 51.627V65.4231C43.2158 64.8527 40.8181 62.5711 40.325 59.4967C40.267 59.1293 39.9383 58.8586 39.5613 58.8586H35.0947C34.6403 58.8586 34.2826 59.2453 34.3212 59.6997C34.7563 65.0171 38.7878 69.9091 47.3923 70.5375V73.5732C47.3923 73.9986 47.7404 74.3467 48.1658 74.3467H50.9115C51.3369 74.3467 51.6849 73.9986 51.6849 73.5636L51.6656 70.4988C59.2356 69.8317 64.6497 65.7809 64.6497 58.5105C64.64 51.801 60.3764 48.8039 54.1116 47.257ZM47.4793 45.6908C46.9379 45.5361 46.4835 45.3911 46.0291 45.2074C42.7614 44.0279 41.2435 42.1233 41.2435 39.6677C41.2435 36.1582 43.9022 34.1569 47.4793 33.7025V45.6908ZM51.6559 65.4521V52.5261C51.9556 52.6131 52.2263 52.6808 52.5067 52.7388C57.0796 54.131 58.6168 56.0645 58.6168 59.0326C58.6168 62.8128 55.7745 65.0848 51.6559 65.4521Z" fill="#F1511B"/>
</svg>
