<svg width="68" height="68" viewBox="0 0 68 68" fill="none" xmlns="http://www.w3.org/2000/svg">
<path d="M41.9029 26.7143C43.3521 26.7143 44.7419 27.29 45.7667 28.3147C46.7914 29.3395 47.3671 30.7294 47.3671 32.1786V47.3547C47.3671 50.8979 45.9596 54.296 43.4542 56.8014C40.9488 59.3068 37.5507 60.7143 34.0076 60.7143C30.4644 60.7143 27.0663 59.3068 24.5609 56.8014C22.0555 54.296 20.648 50.8979 20.648 47.3547V32.1786C20.648 30.7294 21.2237 29.3395 22.2484 28.3147C23.2732 27.29 24.6631 26.7143 26.1123 26.7143H41.9029ZM41.9029 30.3571H26.1123C25.6292 30.3571 25.1659 30.549 24.8243 30.8906C24.4828 31.2322 24.2909 31.6955 24.2909 32.1786V47.3547C24.2909 49.9318 25.3146 52.4032 27.1368 54.2255C28.959 56.0477 31.4305 57.0714 34.0076 57.0714C36.5846 57.0714 39.0561 56.0477 40.8783 54.2255C42.7006 52.4032 43.7243 49.9318 43.7243 47.3547V32.1786C43.7243 31.6955 43.5324 31.2322 43.1908 30.8906C42.8492 30.549 42.3859 30.3571 41.9029 30.3571ZM10.3217 26.7143H20.4149C19.4398 27.7295 18.7547 28.9874 18.4307 30.3571H10.3217C9.83864 30.3571 9.37535 30.549 9.03376 30.8906C8.69218 31.2322 8.50028 31.6955 8.50028 32.1786V44.9261C8.49995 46.1447 8.80516 47.3439 9.38799 48.414C9.97081 49.4841 10.8127 50.391 11.8365 51.0518C12.8604 51.7125 14.0335 52.106 15.2487 52.1962C16.4639 52.2865 17.6824 52.0706 18.7926 51.5683C19.1156 52.7583 19.5794 53.89 20.1623 54.9489C18.4984 55.6753 16.6797 55.9759 14.8706 55.8235C13.0614 55.671 11.3187 55.0704 9.79987 54.0757C8.28101 53.081 7.03382 51.7237 6.17092 50.1263C5.30803 48.5289 4.85661 46.7417 4.85742 44.9261V32.1786C4.85742 30.7294 5.43312 29.3395 6.45788 28.3147C7.48263 27.29 8.87249 26.7143 10.3217 26.7143ZM57.6789 26.7143C59.1281 26.7143 60.5179 27.29 61.5427 28.3147C62.5674 29.3395 63.1431 30.7294 63.1431 32.1786V44.9286C63.1439 46.7431 62.6928 48.5293 61.8306 50.1259C60.9684 51.7225 59.7222 53.0793 58.2044 54.0738C56.6867 55.0684 54.9453 55.6693 53.1372 55.8225C51.3292 55.9757 49.5114 55.6763 47.848 54.9513L47.984 54.7036C48.5037 53.7176 48.9239 52.6709 49.225 51.5731C50.3346 52.0724 51.5516 52.2859 52.7649 52.194C53.9781 52.1021 55.1491 51.7078 56.1708 51.047C57.1925 50.3863 58.0325 49.4802 58.6141 48.4115C59.1957 47.3427 59.5004 46.1453 59.5003 44.9286V32.1786C59.5003 31.6959 59.3087 31.233 58.9677 30.8915C58.6266 30.55 58.1639 30.3578 57.6813 30.3571H49.5869C49.2623 28.9871 48.5763 27.7291 47.6003 26.7143H57.6789ZM34.0003 7.28571C35.1165 7.28571 36.2218 7.50556 37.2531 7.93273C38.2844 8.35989 39.2214 8.986 40.0107 9.7753C40.8 10.5646 41.4261 11.5016 41.8533 12.5329C42.2804 13.5642 42.5003 14.6695 42.5003 15.7857C42.5003 16.9019 42.2804 18.0073 41.8533 19.0385C41.4261 20.0698 40.8 21.0068 40.0107 21.7961C39.2214 22.5854 38.2844 23.2115 37.2531 23.6387C36.2218 24.0659 35.1165 24.2857 34.0003 24.2857C31.7459 24.2857 29.5839 23.3902 27.9899 21.7961C26.3958 20.2021 25.5003 18.04 25.5003 15.7857C25.5003 13.5314 26.3958 11.3694 27.9899 9.7753C29.5839 8.18124 31.7459 7.28571 34.0003 7.28571ZM53.4361 9.71428C54.3929 9.71428 55.3403 9.90273 56.2243 10.2689C57.1082 10.635 57.9114 11.1717 58.5879 11.8482C59.2645 12.5248 59.8011 13.3279 60.1673 14.2119C60.5334 15.0958 60.7219 16.0432 60.7219 17C60.7219 17.9568 60.5334 18.9042 60.1673 19.7881C59.8011 20.6721 59.2645 21.4752 58.5879 22.1518C57.9114 22.8283 57.1082 23.365 56.2243 23.7311C55.3403 24.0973 54.3929 24.2857 53.4361 24.2857C51.5038 24.2857 49.6507 23.5181 48.2844 22.1518C46.918 20.7854 46.1504 18.9323 46.1504 17C46.1504 15.0677 46.918 13.2146 48.2844 11.8482C49.6507 10.4819 51.5038 9.71428 53.4361 9.71428ZM14.5644 9.71428C15.5212 9.71428 16.4686 9.90273 17.3525 10.2689C18.2365 10.635 19.0397 11.1717 19.7162 11.8482C20.3927 12.5248 20.9294 13.3279 21.2955 14.2119C21.6617 15.0958 21.8501 16.0432 21.8501 17C21.8501 17.9568 21.6617 18.9042 21.2955 19.7881C20.9294 20.6721 20.3927 21.4752 19.7162 22.1518C19.0397 22.8283 18.2365 23.365 17.3525 23.7311C16.4686 24.0973 15.5212 24.2857 14.5644 24.2857C12.6321 24.2857 10.779 23.5181 9.41265 22.1518C8.04631 20.7854 7.27871 18.9323 7.27871 17C7.27871 15.0677 8.04631 13.2146 9.41265 11.8482C10.779 10.4819 12.6321 9.71428 14.5644 9.71428ZM34.0003 10.9286C32.7121 10.9286 31.4767 11.4403 30.5658 12.3512C29.6549 13.2621 29.1431 14.4975 29.1431 15.7857C29.1431 17.0739 29.6549 18.3093 30.5658 19.2202C31.4767 20.1311 32.7121 20.6429 34.0003 20.6429C35.2885 20.6429 36.5239 20.1311 37.4348 19.2202C38.3457 18.3093 38.8574 17.0739 38.8574 15.7857C38.8574 14.4975 38.3457 13.2621 37.4348 12.3512C36.5239 11.4403 35.2885 10.9286 34.0003 10.9286ZM53.4361 13.3571C52.9578 13.3571 52.4841 13.4514 52.0421 13.6344C51.6001 13.8175 51.1985 14.0858 50.8602 14.4241C50.522 14.7624 50.2537 15.164 50.0706 15.6059C49.8875 16.0479 49.7933 16.5216 49.7933 17C49.7933 17.4784 49.8875 17.9521 50.0706 18.3941C50.2537 18.836 50.522 19.2376 50.8602 19.5759C51.1985 19.9142 51.6001 20.1825 52.0421 20.3656C52.4841 20.5486 52.9578 20.6429 53.4361 20.6429C54.4023 20.6429 55.3289 20.2591 56.012 19.5759C56.6952 18.8927 57.079 17.9661 57.079 17C57.079 16.0338 56.6952 15.1073 56.012 14.4241C55.3289 13.7409 54.4023 13.3571 53.4361 13.3571ZM14.5644 13.3571C14.086 13.3571 13.6123 13.4514 13.1704 13.6344C12.7284 13.8175 12.3268 14.0858 11.9885 14.4241C11.6503 14.7624 11.3819 15.164 11.1989 15.6059C11.0158 16.0479 10.9216 16.5216 10.9216 17C10.9216 17.4784 11.0158 17.9521 11.1989 18.3941C11.3819 18.836 11.6503 19.2376 11.9885 19.5759C12.3268 19.9142 12.7284 20.1825 13.1704 20.3656C13.6123 20.5486 14.086 20.6429 14.5644 20.6429C15.5306 20.6429 16.4571 20.2591 17.1403 19.5759C17.8235 18.8927 18.2073 17.9661 18.2073 17C18.2073 16.0338 17.8235 15.1073 17.1403 14.4241C16.4571 13.7409 15.5306 13.3571 14.5644 13.3571Z" fill="#F27E1E"/>
</svg>
