<svg width="46" height="47" viewBox="0 0 46 47" fill="none" xmlns="http://www.w3.org/2000/svg">
<path d="M28.139 18.7135C29.1114 18.7135 30.044 19.0998 30.7316 19.7874C31.4192 20.475 31.8054 21.4076 31.8054 22.38V32.5629C31.8054 34.9404 30.861 37.2204 29.1799 38.9015C27.4988 40.5826 25.2188 41.527 22.8414 41.527C20.464 41.527 18.1839 40.5826 16.5028 38.9015C14.8217 37.2204 13.8773 34.9404 13.8773 32.5629V22.38C13.8773 21.4076 14.2636 20.475 14.9512 19.7874C15.6388 19.0998 16.5714 18.7135 17.5438 18.7135H28.139ZM28.139 21.1578H17.5438C17.2196 21.1578 16.9088 21.2866 16.6796 21.5158C16.4504 21.745 16.3216 22.0559 16.3216 22.38V32.5629C16.3216 34.2921 17.0085 35.9504 18.2312 37.1731C19.4539 38.3958 21.1122 39.0827 22.8414 39.0827C24.5705 39.0827 26.2289 38.3958 27.4515 37.1731C28.6742 35.9504 29.3611 34.2921 29.3611 32.5629V22.38C29.3611 22.0559 29.2324 21.745 29.0032 21.5158C28.774 21.2866 28.4631 21.1578 28.139 21.1578ZM6.94855 18.7135H13.7209C13.0667 19.3947 12.6069 20.2388 12.3896 21.1578H6.94855C6.62442 21.1578 6.31356 21.2866 6.08436 21.5158C5.85517 21.745 5.7264 22.0559 5.7264 22.38V30.9334C5.72618 31.751 5.93097 32.5557 6.32204 33.2737C6.71311 33.9917 7.27797 34.6003 7.96495 35.0436C8.65194 35.487 9.43913 35.751 10.2545 35.8115C11.0699 35.8721 11.8874 35.7272 12.6324 35.3902C12.8491 36.1887 13.1603 36.948 13.5514 37.6585C12.435 38.1459 11.2147 38.3476 10.0008 38.2453C8.78686 38.1431 7.61754 37.74 6.59841 37.0726C5.57928 36.4052 4.74243 35.4945 4.16344 34.4226C3.58445 33.3508 3.28156 32.1516 3.28211 30.9334V22.38C3.28211 21.4076 3.66839 20.475 4.35598 19.7874C5.04358 19.0998 5.97615 18.7135 6.94855 18.7135ZM38.7244 18.7135C39.6968 18.7135 40.6294 19.0998 41.317 19.7874C42.0046 20.475 42.3909 21.4076 42.3909 22.38V30.935C42.3914 32.1526 42.0887 33.3511 41.5102 34.4224C40.9316 35.4936 40.0955 36.404 39.0771 37.0714C38.0587 37.7387 36.8902 38.1419 35.6771 38.2447C34.4639 38.3475 33.2442 38.1466 32.1281 37.6601L32.2193 37.4939C32.5681 36.8323 32.85 36.13 33.052 35.3934C33.7966 35.7284 34.6131 35.8717 35.4272 35.81C36.2413 35.7483 37.027 35.4838 37.7126 35.0404C38.3981 34.5971 38.9617 33.9891 39.352 33.272C39.7422 32.5549 39.9466 31.7515 39.9466 30.935V22.38C39.9466 22.0561 39.818 21.7455 39.5892 21.5164C39.3604 21.2872 39.0499 21.1583 38.7261 21.1578H33.2948C33.0771 20.2386 32.6168 19.3945 31.9619 18.7135H38.7244ZM22.8365 5.67729C23.5855 5.67729 24.3271 5.82481 25.0191 6.11143C25.711 6.39805 26.3398 6.81816 26.8694 7.34776C27.399 7.87737 27.8191 8.5061 28.1057 9.19807C28.3923 9.89003 28.5399 10.6317 28.5399 11.3807C28.5399 12.1296 28.3923 12.8713 28.1057 13.5632C27.8191 14.2552 27.399 14.8839 26.8694 15.4135C26.3398 15.9431 25.711 16.3633 25.0191 16.6499C24.3271 16.9365 23.5855 17.084 22.8365 17.084C21.3239 17.084 19.8732 16.4831 18.8036 15.4135C17.734 14.3439 17.1331 12.8933 17.1331 11.3807C17.1331 9.86802 17.734 8.41735 18.8036 7.34776C19.8732 6.27817 21.3239 5.67729 22.8365 5.67729ZM35.8776 7.30682C36.5196 7.30682 37.1553 7.43327 37.7484 7.67894C38.3415 7.92462 38.8805 8.28471 39.3344 8.73866C39.7883 9.1926 40.1484 9.73152 40.3941 10.3246C40.6398 10.9177 40.7662 11.5534 40.7662 12.1954C40.7662 12.8374 40.6398 13.4731 40.3941 14.0662C40.1484 14.6593 39.7883 15.1982 39.3344 15.6522C38.8805 16.1061 38.3415 16.4662 37.7484 16.7119C37.1553 16.9576 36.5196 17.084 35.8776 17.084C34.5811 17.084 33.3377 16.569 32.4209 15.6522C31.5041 14.7354 30.989 13.492 30.989 12.1954C30.989 10.8989 31.5041 9.65545 32.4209 8.73866C33.3377 7.82187 34.5811 7.30682 35.8776 7.30682ZM9.79535 7.30682C10.4373 7.30682 11.073 7.43327 11.6661 7.67894C12.2592 7.92462 12.7982 8.28471 13.2521 8.73866C13.7061 9.1926 14.0661 9.73152 14.3118 10.3246C14.5575 10.9177 14.6839 11.5534 14.6839 12.1954C14.6839 12.8374 14.5575 13.4731 14.3118 14.0662C14.0661 14.6593 13.7061 15.1982 13.2521 15.6522C12.7982 16.1061 12.2592 16.4662 11.6661 16.7119C11.073 16.9576 10.4373 17.084 9.79535 17.084C8.49881 17.084 7.25538 16.569 6.33859 15.6522C5.4218 14.7354 4.90675 13.492 4.90675 12.1954C4.90675 10.8989 5.4218 9.65545 6.33859 8.73866C7.25538 7.82187 8.49881 7.30682 9.79535 7.30682ZM22.8365 8.12159C21.9721 8.12159 21.1432 8.46495 20.532 9.07614C19.9208 9.68734 19.5774 10.5163 19.5774 11.3807C19.5774 12.245 19.9208 13.074 20.532 13.6852C21.1432 14.2964 21.9721 14.6397 22.8365 14.6397C23.7008 14.6397 24.5298 14.2964 25.141 13.6852C25.7522 13.074 26.0956 12.245 26.0956 11.3807C26.0956 10.5163 25.7522 9.68734 25.141 9.07614C24.5298 8.46495 23.7008 8.12159 22.8365 8.12159ZM35.8776 9.75112C35.5567 9.75112 35.2388 9.81434 34.9422 9.93718C34.6457 10.06 34.3762 10.2401 34.1493 10.467C33.9223 10.694 33.7422 10.9635 33.6194 11.26C33.4966 11.5566 33.4333 11.8744 33.4333 12.1954C33.4333 12.5164 33.4966 12.8343 33.6194 13.1308C33.7422 13.4274 33.9223 13.6968 34.1493 13.9238C34.3762 14.1508 34.6457 14.3308 34.9422 14.4537C35.2388 14.5765 35.5567 14.6397 35.8776 14.6397C36.5259 14.6397 37.1476 14.3822 37.606 13.9238C38.0644 13.4654 38.3219 12.8437 38.3219 12.1954C38.3219 11.5471 38.0644 10.9254 37.606 10.467C37.1476 10.0086 36.5259 9.75112 35.8776 9.75112ZM9.79535 9.75112C9.47436 9.75112 9.15651 9.81434 8.85995 9.93718C8.5634 10.06 8.29394 10.2401 8.06697 10.467C7.83999 10.694 7.65995 10.9635 7.53711 11.26C7.41427 11.5566 7.35105 11.8744 7.35105 12.1954C7.35105 12.5164 7.41427 12.8343 7.53711 13.1308C7.65995 13.4274 7.83999 13.6968 8.06697 13.9238C8.29394 14.1508 8.5634 14.3308 8.85995 14.4537C9.15651 14.5765 9.47436 14.6397 9.79535 14.6397C10.4436 14.6397 11.0653 14.3822 11.5237 13.9238C11.9821 13.4654 12.2396 12.8437 12.2396 12.1954C12.2396 11.5471 11.9821 10.9254 11.5237 10.467C11.0653 10.0086 10.4436 9.75112 9.79535 9.75112Z" fill="#0081FB"/>
</svg>
