<svg width="99" height="99" viewBox="0 0 99 99" fill="none" xmlns="http://www.w3.org/2000/svg">
<path fill-rule="evenodd" clip-rule="evenodd" d="M49.5 86.625C54.3753 86.625 59.2029 85.6647 63.7071 83.799C68.2113 81.9333 72.304 79.1987 75.7513 75.7513C79.1987 72.304 81.9333 68.2113 83.799 63.7071C85.6647 59.2029 86.625 54.3753 86.625 49.5C86.625 44.6247 85.6647 39.7971 83.799 35.2929C81.9333 30.7887 79.1987 26.696 75.7513 23.2487C72.304 19.8013 68.2113 17.0667 63.7071 15.201C59.2029 13.3353 54.3753 12.375 49.5 12.375C39.6538 12.375 30.2109 16.2864 23.2487 23.2487C16.2864 30.2109 12.375 39.6538 12.375 49.5C12.375 59.3462 16.2864 68.789 23.2487 75.7513C30.2109 82.7136 39.6538 86.625 49.5 86.625ZM48.543 64.515L69.168 39.765L62.832 34.485L45.0945 55.7659L35.9164 46.5836L30.0836 52.4164L42.4586 64.7914L45.6514 67.9841L48.543 64.515Z" fill="#1C6204"/>
</svg>
