<svg width="60" height="60" viewBox="0 0 60 60" fill="none" xmlns="http://www.w3.org/2000/svg">
<path fill-rule="evenodd" clip-rule="evenodd" d="M30 52.5C32.9547 52.5 35.8806 51.918 38.6104 50.7873C41.3402 49.6566 43.8206 47.9992 45.9099 45.9099C47.9992 43.8206 49.6566 41.3402 50.7873 38.6104C51.918 35.8806 52.5 32.9547 52.5 30C52.5 27.0453 51.918 24.1194 50.7873 21.3896C49.6566 18.6598 47.9992 16.1794 45.9099 14.0901C43.8206 12.0008 41.3402 10.3434 38.6104 9.21271C35.8806 8.08198 32.9547 7.5 30 7.5C24.0326 7.5 18.3097 9.87053 14.0901 14.0901C9.87053 18.3097 7.5 24.0326 7.5 30C7.5 35.9674 9.87053 41.6903 14.0901 45.9099C18.3097 50.1295 24.0326 52.5 30 52.5ZM29.42 39.1L41.92 24.1L38.08 20.9L27.33 33.7975L21.7675 28.2325L18.2325 31.7675L25.7325 39.2675L27.6675 41.2025L29.42 39.1Z" fill="#1C6204"/>
</svg>
